<svg id="Layer_1" data-name="Layer 1" xmlns="http://www.w3.org/2000/svg" 
viewBox="0 0 252.71 422.93"><defs><style>.cls-1,.cls-11{fill:#ee927e;}.cls-1,.cls-10,.cls-12,.cls-13,.cls-14,.cls-15,.cls-16,.cls-17,.cls-18,.cls-19,.cls-20,.cls-3,.cls-4,.cls-5,.cls-6,.cls-7,.cls-8,.cls-9{stroke:#231f20;stroke-miterlimit:10;stroke-width:2px;}.cls-2{fill:#ec7d77;}.cls-3{fill:#0980b7;}.cls-4{fill:#2e599c;}.cls-5{fill:#00a8c7;}.cls-6{fill:#ac191d;}.cls-7{fill:#8d0e11;}.cls-8{fill:#f6c09c;}.cls-9{fill:#931938;}.cls-10{fill:#fff;}.cls-12{fill:#ee4042;}.cls-13{fill:#d22227;}.cls-14{fill:#f26b6d;}.cls-15{fill:#e9686a;}.cls-16{fill:#002539;}.cls-17{fill:#fedabe;}.cls-18{fill:#55c9e9;}.cls-19{fill:#680526;}.cls-20{fill:#db1b51;}</style></defs>
<rect class="cls-1" x="79.22" y="245.27" width="135.35" height="162.67"/>
<path class="cls-2" d="M925.27,557.76V701.23a74.12,74.12,0,0,0,93.9-43.14A103.34,103.34,0,0,0,1060.63,607v-49.2Z" transform="translate(-846.05 -312.5)"/>
<polygon class="cls-3" points="85.46 379.93 62.08 379.93 62.08 421.93 127.46 421.93 85.46 379.93"/>
<polygon class="cls-4" points="62.08 407.54 62.08 421.93 127.46 421.93 113.06 407.54 62.08 407.54"/>
<polygon class="cls-5" points="129.48 379.93 233.71 379.93 233.71 421.93 87.48 421.93 129.48 379.93"/>
<circle class="cls-6" cx="892.1" cy="436.03" r="45.05" transform="translate(-893.08 446.03) rotate(-45)"/><path class="cls-7" d="M912.71,396a45,45,0,0,1-65.65,39.79c0,.09,0,.18,0,.27A45.05,45.05,0,1,0,912.71,396Z" transform="translate(-846.05 -312.5)"/><path class="cls-8" d="M964.1,391a103,103,0,0,0-103,103V554a102.51,102.51,0,0,0,14.78,53.18v7.11A74.11,74.11,0,0,0,1019.17,641a102.87,102.87,0,0,0,47.88-87v-60.1A103,103,0,0,0,964.1,391Z" transform="translate(-846.05 -312.5)"/><path class="cls-9" d="M964.32,615.76H904.75v2.68a29.79,29.79,0,0,0,17.15,27A44.16,44.16,0,0,1,959.13,625c1.49,0,3,.08,4.4.22a29.91,29.91,0,0,0,.79-6.8Z" transform="translate(-846.05 -312.5)"/><rect class="cls-10" x="58.7" y="277.72" width="59.56" height="25.54"/><path class="cls-11" d="M964.1,391A102.72,102.72,0,0,0,886,426.92a80,80,0,0,0,123.37,48.9,44.87,44.87,0,0,0,28.78,10.39h.3a22.89,22.89,0,0,0-.3,3.63,22.54,22.54,0,0,0,29,21.59V493.93A103,103,0,0,0,964.1,391Z" transform="translate(-846.05 -312.5)"/><path class="cls-12" d="M1072.24,454.2A45,45,0,0,0,1043,380a80,80,0,1,0-33.63,79.44,44.88,44.88,0,0,0,28.78,10.4h.3a22.8,22.8,0,0,0-.3,3.63,22.53,22.53,0,1,0,34.14-19.3Z" transform="translate(-846.05 -312.5)"/><path class="cls-13" d="M1060.63,480a22.53,22.53,0,0,1-22.53-22.52,22.8,22.8,0,0,1,.3-3.63h-.3a44.88,44.88,0,0,1-28.78-10.4,80,80,0,0,1-124.82-58c-.26,2.63-.4,5.3-.4,8a80,80,0,0,0,125.22,66,44.88,44.88,0,0,0,28.78,10.4h.3a22.8,22.8,0,0,0-.3,3.63,22.53,22.53,0,1,0,43.58-8A22.53,22.53,0,0,1,1060.63,480Z" transform="translate(-846.05 -312.5)"/><path class="cls-14" d="M923,394.16a10.29,10.29,0,0,1-10.29-10.28,49.78,49.78,0,0,1,49.72-49.72,10.29,10.29,0,0,1,0,20.57,29.18,29.18,0,0,0-29.14,29.15A10.29,10.29,0,0,1,923,394.16Z" transform="translate(-846.05 -312.5)"/><circle class="cls-8" cx="223.38" cy="199.86" r="28.33"/><path class="cls-1" d="M1081.06,512.35a11.63,11.63,0,1,1-11.62-11.62A11.62,11.62,0,0,1,1081.06,512.35Z" transform="translate(-846.05 -312.5)"/><path class="cls-15" d="M1073.91,512.35a6.48,6.48,0,1,1-6.47-6.47A6.48,6.48,0,0,1,1073.91,512.35Z" transform="translate(-846.05 -312.5)"/><path class="cls-11" d="M1010.6,497.66a12.8,12.8,0,0,1-12.81,12.8H967.07a12.81,12.81,0,0,1-12.81-12.8h0a12.81,12.81,0,0,1,12.81-12.81h30.72a12.8,12.8,0,0,1,12.81,12.81Z" transform="translate(-846.05 -312.5)"/><path class="cls-10" d="M1002.76,527.16a20.33,20.33,0,1,1-20.33-20.34A20.33,20.33,0,0,1,1002.76,527.16Z" transform="translate(-846.05 -312.5)"/><path class="cls-16" d="M989.1,527.16a4.67,4.67,0,1,1-4.67-4.67A4.67,4.67,0,0,1,989.1,527.16Z" transform="translate(-846.05 -312.5)"/><path class="cls-12" d="M1010.6,490.88a12.8,12.8,0,0,1-12.81,12.8H967.07a12.81,12.81,0,0,1-12.81-12.8h0a12.81,12.81,0,0,1,12.81-12.8h30.72a12.8,12.8,0,0,1,12.81,12.8Z" transform="translate(-846.05 -312.5)"/><path class="cls-13" d="M997.79,497.18H967.07a12.79,12.79,0,0,1-12.37-9.55,12.44,12.44,0,0,0-.44,3.25,12.81,12.81,0,0,0,12.81,12.8h30.72a12.76,12.76,0,0,0,12.38-16.05A12.81,12.81,0,0,1,997.79,497.18Z" transform="translate(-846.05 -312.5)"/><path class="cls-14" d="M996.14,486.63a3.26,3.26,0,0,1-3.25,3.25h-19.5a3.26,3.26,0,0,1-3.25-3.25h0a3.26,3.26,0,0,1,3.25-3.26h19.5a3.26,3.26,0,0,1,3.25,3.26Z" transform="translate(-846.05 -312.5)"/><path class="cls-11" d="M922.27,497.66a12.8,12.8,0,0,1-12.8,12.8H878.74a12.8,12.8,0,0,1-12.8-12.8h0a12.8,12.8,0,0,1,12.8-12.81h30.73a12.8,12.8,0,0,1,12.8,12.81Z" transform="translate(-846.05 -312.5)"/><path class="cls-10" d="M914.44,527.16a20.34,20.34,0,1,1-20.34-20.34A20.34,20.34,0,0,1,914.44,527.16Z" transform="translate(-846.05 -312.5)"/><path class="cls-16" d="M900.77,527.16a4.67,4.67,0,1,1-4.67-4.67A4.67,4.67,0,0,1,900.77,527.16Z" transform="translate(-846.05 -312.5)"/><path class="cls-12" d="M922.27,490.88a12.8,12.8,0,0,1-12.8,12.8H878.74a12.8,12.8,0,0,1-12.8-12.8h0a12.8,12.8,0,0,1,12.8-12.8h30.73a12.8,12.8,0,0,1,12.8,12.8Z" transform="translate(-846.05 -312.5)"/><path class="cls-13" d="M909.47,497.18H878.74a12.79,12.79,0,0,1-12.37-9.55,12.76,12.76,0,0,0,12.37,16.05h30.73a12.76,12.76,0,0,0,12.37-16.05A12.81,12.81,0,0,1,909.47,497.18Z" transform="translate(-846.05 -312.5)"/><path class="cls-14" d="M907.81,486.63a3.25,3.25,0,0,1-3.25,3.25H885.07a3.26,3.26,0,0,1-3.26-3.25h0a3.26,3.26,0,0,1,3.26-3.26h19.49a3.25,3.25,0,0,1,3.25,3.26Z" transform="translate(-846.05 -312.5)"/><path class="cls-12" d="M1013.67,574.92c0-.23,0-.47,0-.71h-.06a18.87,18.87,0,0,0-37.64,0H890.22a18.87,18.87,0,0,0-37.64,0h-.06c0,.24,0,.48,0,.71s0,.48,0,.72a18.86,18.86,0,0,0,.2,2.73,45,45,0,0,0,80.39,23.4,45,45,0,0,0,80.38-23.4,18.86,18.86,0,0,0,.2-2.73C1013.69,575.4,1013.68,575.16,1013.67,574.92Z" transform="translate(-846.05 -312.5)"/><path class="cls-13" d="M968.68,610a44.92,44.92,0,0,1-35.57-17.45,45,45,0,0,1-80.1-21,18.93,18.93,0,0,0-.43,2.73h-.06c0,.24,0,.48,0,.71s0,.48,0,.72a18.86,18.86,0,0,0,.2,2.73,45,45,0,0,0,80.39,23.4,45,45,0,0,0,80.38-23.4,18.86,18.86,0,0,0,.2-2.73c0-.24,0-.48,0-.72s0-.47,0-.71h-.06a18.93,18.93,0,0,0-.43-2.73A45,45,0,0,1,968.68,610Z" transform="translate(-846.05 -312.5)"/><path class="cls-14" d="M861.35,580a2.92,2.92,0,0,1-2.91-2.92A14.09,14.09,0,0,1,872.52,563a2.91,2.91,0,0,1,0,5.82,8.26,8.26,0,0,0-8.25,8.25A2.92,2.92,0,0,1,861.35,580Z" transform="translate(-846.05 -312.5)"/><path class="cls-8" d="M959.13,564a27,27,0,0,1-27,27h0a27,27,0,0,1-27-27V535.42a27,27,0,0,1,27-27h0a27,27,0,0,1,27,27Z" transform="translate(-846.05 -312.5)"/><path class="cls-1" d="M932.11,582a27,27,0,0,1-27-27v9a27,27,0,1,0,54,0v-9A27,27,0,0,1,932.11,582Z" transform="translate(-846.05 -312.5)"/><path class="cls-17" d="M928.64,561.67a5.33,5.33,0,0,1-5.33,5.33h0a5.33,5.33,0,0,1-5.33-5.33V532.49a5.33,5.33,0,0,1,5.33-5.33h0a5.32,5.32,0,0,1,5.33,5.33Z" transform="translate(-846.05 -312.5)"/><path class="cls-17" d="M1071.05,493.83a3.43,3.43,0,0,1,3.44-3.43A16.6,16.6,0,0,1,1091.07,507a3.43,3.43,0,1,1-6.86,0,9.73,9.73,0,0,0-9.72-9.72A3.44,3.44,0,0,1,1071.05,493.83Z" transform="translate(-846.05 -312.5)"/><path class="cls-18" d="M1064,702.76a3.73,3.73,0,0,1-3.73,3.73H986.16a3.73,3.73,0,0,1-3.73-3.73h0a3.72,3.72,0,0,1,3.73-3.72h74.09a3.72,3.72,0,0,1,3.73,3.72Z" transform="translate(-846.05 -312.5)"/><path class="cls-19" d="M947.31,629.38a8.72,8.72,0,0,1-8.71,8.72h-10a8.72,8.72,0,0,1-8.72-8.72h0a8.71,8.71,0,0,1,8.72-8.71h10a8.71,8.71,0,0,1,8.71,8.71Z" transform="translate(-846.05 -312.5)"/><path class="cls-20" d="M921.9,645.41a29.79,29.79,0,0,0,41.63-20.17c-1.45-.14-2.91-.22-4.4-.22A44.16,44.16,0,0,0,921.9,645.41Z" transform="translate(-846.05 -312.5)"/></svg>